# xmcd
#
# Track frame offsets:
# 150
# 27484
# 44051
# 60139
# 78696
# 92159
# 105572
# 120980
# 136812
# 148299
# 162537
# 173941
# 186734
# 200167
# 214225
# 231837
# 249847
# 269425
# 301012
#
# Disc length: 4386 seconds
#
#
# Revision: 0
# Processed by: cddbd v1.5.1PL2 Copyright (c) Steve Scherf et al.
# Submitted via: FreeRIP 2.942 
#
DISCID=1b112013
DTITLE=Michael Jackson - WORLD'S BEST SERIES
DYEAR=2002
DGENRE=Pop
TTITLE0=Don't Stop Til You Get Enough
TTITLE1=Rock With You
TTITLE2=Blame It On The Boogie
TTITLE3=Off The Wall
TTITLE4=I Want You Back
TTITLE5=ABC
TTITLE6=Enjoy Yourself
TTITLE7=Going Back To Indiana
TTITLE8=Sugar Daddy
TTITLE9=Dapper-Dan
TTITLE10=Rockin' Robin
TTITLE11=Little Bitty Pretty One
TTITLE12=I Wanna Be Where You Are
TTITLE13=My Girl
TTITLE14=Ain't No Sunshine
TTITLE15=Who's Loving You
TTITLE16=Baby Be Mine
TTITLE17=I Just Can't Stop Loving You (live)
TTITLE18=Billie Jean (instrumental)
EXTD=
EXTT0=
EXTT1=
EXTT2=
EXTT3=
EXTT4=
EXTT5=
EXTT6=
EXTT7=
EXTT8=
EXTT9=
EXTT10=
EXTT11=
EXTT12=
EXTT13=
EXTT14=
EXTT15=
EXTT16=
EXTT17=
EXTT18=
PLAYORDER=
